<svg width="28" height="36" viewBox="0 0 28 36" fill="none" xmlns="http://www.w3.org/2000/svg">
<path d="M14.15 0.949951H14.05L0.549988 2.34995V27.05L14.05 35.0499L27.45 27.05V2.34995L14.15 0.949951ZM25.55 13.05L14.05 6.24995V6.14995H13.95L13.85 6.04995V6.14995L2.44999 13.05V4.04995L13.95 2.84995L25.55 4.04995V13.05ZM13.95 7.74995L25.45 14.45L20.95 17.05L13.85 12.85V14.25L19.75 17.75L18.85 18.25L13.85 15.25V16.65L17.65 18.95L16.85 19.45L13.85 17.65V19.05L15.75 20.15L13.95 21.25L2.54999 14.55L13.95 7.74995ZM2.44999 16.05L13.85 22.85V23.85L5.94999 19.15V20.55L13.95 25.35V26.45L5.94999 21.75V23.15L13.95 27.95L22.05 23.05V17.85L25.45 15.85V25.85L13.95 32.75L2.44999 25.95V16.05Z" fill="black"/>
</svg>
